<?xml version="1.0" encoding="utf-8"?><svg xml:space="preserve" viewBox="0 0 100 100" y="0" x="0" xmlns="http://www.w3.org/2000/svg" id="Layer_1" version="1.1" width="410px" height="410px" xmlns:xlink="http://www.w3.org/1999/xlink" style="width:100%;height:100%;background-size:initial;background-repeat-y:initial;background-repeat-x:initial;background-position-y:initial;background-position-x:initial;background-origin:initial;background-color:initial;background-clip:initial;background-attachment:initial;animation-play-state:paused" ><g class="ldl-scale" style="transform-origin:50% 50%;transform:rotate(0deg) scale(0.8, 0.8);animation-play-state:paused" ><path fill="#4a3827" d="M87.1 53.8H12.9c-1.6 0-2.9-1.3-2.9-2.9v-5.1c0-1.6 1.3-2.9 2.9-2.9h74.2c1.6 0 2.9 1.3 2.9 2.9v5.1c0 1.6-1.3 2.9-2.9 2.9z" style="fill:rgb(74, 56, 39);animation-play-state:paused" ></path>
<path fill="#4a3827" d="M87.1 72.5H12.9c-1.6 0-2.9-1.3-2.9-2.9v-5.1c0-1.6 1.3-2.9 2.9-2.9h74.2c1.6 0 2.9 1.3 2.9 2.9v5.1c0 1.6-1.3 2.9-2.9 2.9z" style="fill:rgb(74, 56, 39);animation-play-state:paused" ></path>
<path d="M14.4 53.8h71.2v7.7H14.4z" fill="#acbd81" style="fill:rgb(172, 189, 129);animation-play-state:paused" ></path>
<path fill="#f7b26a" d="M64.9 15.5H35.1c-11.4 0-20.7 9.3-20.7 20.7v6.7h71.2v-6.7c0-11.5-9.2-20.7-20.7-20.7z" style="fill:rgb(247, 178, 106);animation-play-state:paused" ></path>
<path fill="#f7b26a" d="M75.2 84.5H24.8c-5.7 0-10.4-4.7-10.4-10.4v-1.6h71.2v1.6c0 5.8-4.6 10.4-10.4 10.4z" style="fill:rgb(247, 178, 106);animation-play-state:paused" ></path>
<path fill="#f4e6c8" d="M39.9 32.2c-.6-1.5.1-3.2.8-3.5s2.4.4 3.1 1.9c.6 1.5.3 3-.8 3.5s-2.4-.4-3.1-1.9z" style="fill:rgb(244, 230, 200);animation-play-state:paused" ></path>
<path fill="#f4e6c8" d="M49.8 36.6c-.6-1.5.1-3.2.8-3.5.6-.3 2.4.4 3.1 1.9s.3 3-.8 3.5c-1.1.4-2.5-.4-3.1-1.9z" style="fill:rgb(244, 230, 200);animation-play-state:paused" ></path>
<path fill="#f4e6c8" d="M61.4 28.9c-.8 1.3-2.6 1.7-3.2 1.3-.6-.4-1-2.1-.2-3.4.8-1.3 2.2-1.9 3.2-1.3.9.6 1 2.1.2 3.4z" style="fill:rgb(244, 230, 200);animation-play-state:paused" ></path>
<path fill="#f4e6c8" d="M70.8 22.7c1.4.8 1.9 2.7 1.6 3.3-.3.6-2.2 1.2-3.6.4-1.4-.8-2.1-2.3-1.6-3.3s2.2-1.2 3.6-.4z" style="fill:rgb(244, 230, 200);animation-play-state:paused" ></path>
<path fill="#f4e6c8" d="M24.1 34.6c1.3 1.1 1.5 3.1 1 3.7-.5.6-2.5.9-3.8-.2-1.3-1.1-1.8-2.7-1-3.7s2.5-.9 3.8.2z" style="fill:rgb(244, 230, 200);animation-play-state:paused" ></path>
<path fill="#f4e6c8" d="M31.7 26.2c.4 1.6-.6 3.3-1.2 3.5-.7.2-2.4-.7-2.9-2.3-.4-1.6.1-3.1 1.2-3.5 1.2-.3 2.5.7 2.9 2.3z" style="fill:rgb(244, 230, 200);animation-play-state:paused" ></path>
<path fill="#f4e6c8" d="M43.1 22.6c-.5 1.5-2.3 2.3-3 2.1-.7-.2-1.6-1.9-1-3.5.5-1.5 1.9-2.5 3-2.1s1.6 2 1 3.5z" style="fill:rgb(244, 230, 200);animation-play-state:paused" ></path>
<path fill="#f4e6c8" d="M76.2 37.6c-1.5-.3-2.5-1.8-2.4-2.5.1-.6 1.6-1.7 3.1-1.4s2.6 1.4 2.4 2.5-1.6 1.6-3.1 1.4z" style="fill:rgb(244, 230, 200);animation-play-state:paused" ></path>
<metadata xmlns:d="https://loading.io/stock/" style="animation-play-state:paused" ><d:name style="animation-play-state:paused" >hamburger</d:name>
<d:tags style="animation-play-state:paused" >hamburger,sandwich,cheeseburger</d:tags>
<d:license style="animation-play-state:paused" >by</d:license>
<d:slug style="animation-play-state:paused" >ny8q2d</d:slug></metadata></g><!-- generated by https://loading.io/ --></svg>