<?xml version="1.0" encoding="utf-8"?><svg xml:space="preserve" viewBox="0 0 100 100" y="0" x="0" xmlns="http://www.w3.org/2000/svg" id="Layer_1" version="1.1" width="200px" height="200px" xmlns:xlink="http://www.w3.org/1999/xlink" style="width:100%;height:100%;background-size:initial;background-repeat-y:initial;background-repeat-x:initial;background-position-y:initial;background-position-x:initial;background-origin:initial;background-color:initial;background-clip:initial;background-attachment:initial;animation-play-state:paused" ><g class="ldl-scale" style="transform-origin:50% 50%;transform:rotate(0deg) scale(0.8, 0.8);animation-play-state:paused" ><g style="animation-play-state:paused" ><path fill="#f7b26a" d="M50 10c-22.1 0-40 17.9-40 40s17.9 40 40 40 40-17.9 40-40-17.9-40-40-40zm0 57.5c-9.7 0-17.5-7.8-17.5-17.5S40.3 32.5 50 32.5 67.5 40.3 67.5 50 59.7 67.5 50 67.5z" style="fill:rgb(247, 178, 106);animation-play-state:paused" ></path>
<path fill="#e15c64" d="M50 10c-22.1 0-40 17.9-40 40 0 9.2 3.1 17.7 8.3 24.4 1.7-.9 2.9-2.6 2.9-4.6v-.3c0-2.9 2.4-5.2 5.4-5.2h1c3 0 5.4 2.3 5.4 5.2v5c0 2.9 2.4 5.2 5.4 5.2h1c3 0 5.4-2.3 5.4-5.2s2.4-5.2 5.4-5.2h1c3 0 5.4 2.3 5.4 5.2v1.8c0 2.9 2.4 5.2 5.4 5.2h1c3 0 5.4-2.3 5.4-5.2V63c0-2.9 2.4-5.2 5.4-5.2h1c3 0 5.4 2.3 5.4 5.2v2.4c0 2.4 1.7 4.4 4 5 3.6-6 5.6-13 5.6-20.4C90 27.9 72.1 10 50 10zm0 57.5c-9.7 0-17.5-7.8-17.5-17.5S40.3 32.5 50 32.5 67.5 40.3 67.5 50 59.7 67.5 50 67.5z" style="fill:rgb(225, 92, 100);animation-play-state:paused" ></path></g>
<path stroke-linecap="round" stroke-width="2" fill="none" stroke="#f5e169" stroke-miterlimit="10" d="M37.9 31.5c.6-1.8 1.6-3.1 3.4-3.2" style="stroke:rgb(245, 225, 105);animation-play-state:paused" ></path>
<path stroke-linecap="round" stroke-width="2" fill="none" stroke="#f5e169" stroke-miterlimit="10" d="M72.8 42.4c1.2-1.5 2.5-2.5 4.3-2" style="stroke:rgb(245, 225, 105);animation-play-state:paused" ></path>
<path stroke-linecap="round" stroke-width="2" fill="none" stroke="#f5e169" stroke-miterlimit="10" d="M28.3 19.1c1.7.8 2.9 1.9 2.9 3.7" style="stroke:rgb(245, 225, 105);animation-play-state:paused" ></path>
<path stroke-linecap="round" stroke-width="2" fill="none" stroke="#f5e169" stroke-miterlimit="10" d="M71.3 22.9c-1.1 1.5-2.4 2.5-4.2 2.2" style="stroke:rgb(245, 225, 105);animation-play-state:paused" ></path>
<path stroke-linecap="round" stroke-width="2" fill="none" stroke="#f5e169" stroke-miterlimit="10" d="M65.7 29.2c.5 1.8.4 3.5-1 4.6" style="stroke:rgb(245, 225, 105);animation-play-state:paused" ></path>
<path stroke-linecap="round" stroke-width="2" fill="none" stroke="#f5e169" stroke-miterlimit="10" d="M19.9 54.5c-1.7.8-3.3 1.2-4.7 0" style="stroke:rgb(245, 225, 105);animation-play-state:paused" ></path>
<path stroke-linecap="round" stroke="#acbd81" fill="none" stroke-miterlimit="10" stroke-width="2" d="M71.8 30.9c1.9.2 3.4.7 4 2.4" style="stroke:rgb(172, 189, 129);animation-play-state:paused" ></path>
<path stroke-linecap="round" stroke="#acbd81" fill="none" stroke-miterlimit="10" stroke-width="2" d="M21.2 48.4c.9-1.6 2.1-2.8 3.9-2.6" style="stroke:rgb(172, 189, 129);animation-play-state:paused" ></path>
<path stroke-linecap="round" stroke="#acbd81" fill="none" stroke-miterlimit="10" stroke-width="2" d="M75 53.2c-1.9-.1-3.4-.6-4.1-2.3" style="stroke:rgb(172, 189, 129);animation-play-state:paused" ></path>
<path stroke-linecap="round" stroke="#acbd81" fill="none" stroke-miterlimit="10" stroke-width="2" d="M57.7 27.2c-1.6 1-3.1 1.6-4.7.6" style="stroke:rgb(172, 189, 129);animation-play-state:paused" ></path>
<path stroke-linecap="round" stroke="#acbd81" fill="none" stroke-miterlimit="10" stroke-width="2" d="M41 72.8c-1.6-1-2.7-2.2-2.5-4" style="stroke:rgb(172, 189, 129);animation-play-state:paused" ></path>
<path stroke-linecap="round" stroke="#acbd81" fill="none" stroke-miterlimit="10" stroke-width="2" d="M42.6 19.1c-1.8-.4-3.3-1.1-3.7-2.9" style="stroke:rgb(172, 189, 129);animation-play-state:paused" ></path>
<path stroke-miterlimit="10" stroke-width="2" stroke="#a0c8d7" fill="none" stroke-linecap="round" d="M30.6 59c-1.8.6-3.4.6-4.7-.7" style="stroke:rgb(160, 200, 215);animation-play-state:paused" ></path>
<path stroke-miterlimit="10" stroke-width="2" stroke="#a0c8d7" fill="none" stroke-linecap="round" d="M49.1 18.7c1.8.5 3.2 1.4 3.5 3.2" style="stroke:rgb(160, 200, 215);animation-play-state:paused" ></path>
<path stroke-miterlimit="10" stroke-width="2" stroke="#a0c8d7" fill="none" stroke-linecap="round" d="M81.7 44c1.5 1.2 2.4 2.5 1.9 4.3" style="stroke:rgb(160, 200, 215);animation-play-state:paused" ></path>
<path stroke-miterlimit="10" stroke-width="2" stroke="#a0c8d7" fill="none" stroke-linecap="round" d="M63.9 16.7c-1.8.6-3.4.8-4.7-.5" style="stroke:rgb(160, 200, 215);animation-play-state:paused" ></path>
<path stroke-miterlimit="10" stroke-width="2" stroke="#a0c8d7" fill="none" stroke-linecap="round" d="M27.5 35.9c-1.9.1-3.5-.2-4.4-1.9" style="stroke:rgb(160, 200, 215);animation-play-state:paused" ></path>
<path stroke-miterlimit="10" stroke-width="2" stroke="#a0c8d7" fill="none" stroke-linecap="round" d="M59.4 70.9c1.9-.1 3.5.2 4.3 1.8" style="stroke:rgb(160, 200, 215);animation-play-state:paused" ></path>
<metadata xmlns:d="https://loading.io/stock/" style="animation-play-state:paused" ><d:name style="animation-play-state:paused" >donut</d:name>


<d:tags style="animation-play-state:paused" >donut,doughnut,sweet roll,cruller,chocolate</d:tags>


<d:license style="animation-play-state:paused" >by</d:license>


<d:slug style="animation-play-state:paused" >bkokl7</d:slug></metadata></g><!-- generated by https://loading.io/ --></svg>