<?xml version="1.0" encoding="iso-8859-1"?>
<!-- Uploaded to: SVG Repo, www.svgrepo.com, Generator: SVG Repo Mixer Tools -->
<svg height="800px" width="800px" version="1.1" id="Layer_1" xmlns="http://www.w3.org/2000/svg" xmlns:xlink="http://www.w3.org/1999/xlink" 
	 viewBox="0 0 512 512" xml:space="preserve">
<path style="fill:#E49429;" d="M256,0c-64.161,0-116.364,52.201-116.367,116.364c0,64.163,52.201,116.364,116.364,116.364
	c64.161,0,116.364-52.201,116.367-116.364C372.364,52.201,320.163,0,256,0z"/>
<path style="fill:#B77220;" d="M372.364,116.364C372.364,52.201,320.163,0,256,0v232.727
	C320.158,232.726,372.361,180.527,372.364,116.364z"/>
<path style="fill:#A6D864;" d="M349.091,93.091c-64.164,0-116.364,52.201-116.364,116.364c0,12.854,10.42,23.273,23.273,23.273
	c12.853,0,23.273-10.418,23.273-23.273h139.636c0,12.854,10.42,23.273,23.273,23.273c12.853,0,23.273-10.418,23.273-23.273
	C465.455,145.292,413.254,93.091,349.091,93.091z"/>
<path style="fill:#8CC43F;" d="M349.091,93.091v116.364h69.818c0,12.854,10.42,23.273,23.273,23.273
	c12.853,0,23.273-10.418,23.273-23.273C465.455,145.292,413.254,93.091,349.091,93.091z"/>
<path style="fill:#C01E77;" d="M162.908,93.091c-64.163,0-116.362,52.201-116.362,116.364c0,12.854,10.42,23.273,23.273,23.273
	s23.273-10.418,23.273-23.273h139.636c0,12.854,10.42,23.273,23.273,23.273c12.853,0,23.273-10.418,23.273-23.273
	C279.273,145.292,227.07,93.091,162.908,93.091z"/>
<path style="fill:#A61B67;" d="M162.909,93.091v116.364h69.818c0,12.854,10.42,23.273,23.273,23.273
	c12.853,0,23.273-10.418,23.273-23.273C279.273,145.292,227.07,93.091,162.909,93.091z"/>
<path style="fill:#7BD9BF;" d="M465.455,209.455c0-12.853-10.42-23.273-23.273-23.273H69.818c-12.853,0-23.273,10.42-23.273,23.273
	c0,107.627,81.602,196.54,186.182,208.154v47.846h-69.872c-12.853,0-23.273,10.42-23.273,23.273
	c0,12.854,10.42,23.273,23.273,23.273h186.29c12.853,0,23.273-10.418,23.273-23.273c0-12.853-10.42-23.273-23.273-23.273h-69.872
	v-47.846C383.853,405.994,465.455,317.082,465.455,209.455z"/>
<path style="fill:#72C8B0;" d="M465.455,209.455c0-12.853-10.42-23.273-23.273-23.273H256V512h93.145
	c12.853,0,23.273-10.418,23.273-23.273c0-12.853-10.42-23.273-23.273-23.273h-69.872v-47.846
	C383.853,405.994,465.455,317.082,465.455,209.455z"/>
</svg>