<?xml version="1.0" encoding="utf-8"?><svg xml:space="preserve" viewBox="0 0 100 100" y="0" x="0" xmlns="http://www.w3.org/2000/svg" id="Layer_1" version="1.1" width="393px" height="393px" xmlns:xlink="http://www.w3.org/1999/xlink" style="width:100%;height:100%;background-size:initial;background-repeat-y:initial;background-repeat-x:initial;background-position-y:initial;background-position-x:initial;background-origin:initial;background-color:initial;background-clip:initial;background-attachment:initial;animation-play-state:paused" ><g class="ldl-scale" style="transform-origin:50% 50%;transform:rotate(0deg) scale(0.8, 0.8);animation-play-state:paused" ><g style="animation-play-state:paused" ><circle fill="#d65a62" r="17.7" cy="27.7" cx="47.1" style="fill:rgb(214, 90, 98);animation-play-state:paused" ></circle>
<path fill="#65503a" d="M47.1 10c-9.8 0-17.7 7.9-17.7 17.7 0 1.7.3 3.4.7 5 1.2-.8 1.8-2.2 2.2-3.6.4-1.6.6-3.3 1.6-4.7.9-1.4 3-2.2 4.3-1.2 1 .7 1.6 2.2 2.7 2 1.7-.3 1.5-3.9 3.3-3.6.9 4.1 1.5 8.3 1.8 12.5 1.8-1.3 2-3.9 2-6.1s0-4.7 1.6-6.3c1.5-1.6 5.1-.8 4.9 1.4.7-1.3 2.4-1.7 3.9-1.5 1.5.2 2.9.8 4.4 1H64C61.8 15.3 55 10 47.1 10z" style="fill:rgb(101, 80, 58);animation-play-state:paused" ></path></g>
<g style="animation-play-state:paused" ><circle fill="#f0af6b" r="18.2" cy="47.8" cx="34.3" style="fill:rgb(240, 175, 107);animation-play-state:paused" ></circle>
<path fill="#65503a" d="M34.3 29.5C24.2 29.5 16 37.7 16 47.8v.2c1.6-.7 3.1-1.9 4.2-3.1 2-2.3 3.3-10.2 6.7-5.7.7.9 2.2.3 2.9-.6.7-.9 1.1-2.1 2.2-2.6 1.6-.8 3.5.6 4.1 2.3.6 1.7.3 3.5.4 5.3.1 1.8.9 3.8 2.6 4.3 1.5-1.1 1.6-3.1 1.8-4.9.2-1.8 1.1-3.9 2.9-4.1 2.6-.2 3.4 3.8 5.8 5 .8.4 1.7.4 2.5.1-1.8-8.3-9.1-14.5-17.8-14.5z" style="fill:rgb(101, 80, 58);animation-play-state:paused" ></path></g>
<g style="animation-play-state:paused" ><circle fill="#f3e4c7" r="18.6" cy="45.8" cx="65.3" style="fill:rgb(243, 228, 199);animation-play-state:paused" ></circle>
<path fill="#65503a" d="M65.3 27.2c-9.1 0-16.7 6.5-18.3 15.2.6.6 1.1 1.2 1.7 1.9.2.3.5.6.8.7.8.2 1.5-.6 1.8-1.3.5-1.2.7-2.5 1.3-3.6.6-1.1 1.9-2.1 3.1-1.8.6.1 1.2.5 1.8.3.7-.3.8-1.1 1.2-1.7.8-1.2 2.9-1 3.9.1s1.3 2.7 1.5 4.1c.2 1.6.5 3.3.7 4.9.2 1.5 1.1 3.5 2.6 3.1 1-.3 1.3-1.5 1.5-2.5.4-1.8.9-3.5 1.5-5.1.1-.3.3-.6.5-.8 1.2-.7 1.8 2.3 3.2 2.2.7-.4 1.3-.8 2-1.2.6 2 3.4 2.7 5.3 1.7.7-.4 1.4-.9 1.9-1.5-1.6-8.4-9.1-14.7-18-14.7z" style="fill:rgb(101, 80, 58);animation-play-state:paused" ></path></g>
<g style="animation-play-state:paused" ><path fill="#e0e0e0" d="M72.6 90H27.4c-2 0-3.8-1.5-4-3.5L19.3 57h61.5l-4.1 29.5c-.3 2-2 3.5-4.1 3.5z" style="fill:rgb(224, 224, 224);animation-play-state:paused" ></path>
<path opacity=".3" fill="#666" d="M34.6 87.8c-2 0-3.8-1.5-4-3.5L26.8 57h-7.5l4.1 29.5c.3 2 2 3.5 4 3.5h45.3c1.5 0 2.9-.9 3.6-2.2H34.6z" style="fill:rgb(102, 102, 102);animation-play-state:paused" ></path>
<path fill="#666" d="M81.3 58.3H18.7c-.8 0-1.4-.6-1.4-1.4 0-.8.6-1.4 1.4-1.4h62.7c.8 0 1.4.6 1.4 1.4 0 .8-.7 1.4-1.5 1.4z" style="fill:rgb(102, 102, 102);animation-play-state:paused" ></path></g>
<metadata xmlns:d="https://loading.io/stock/" style="animation-play-state:paused" ><d:name style="animation-play-state:paused" >ice cream</d:name>


<d:tags style="animation-play-state:paused" >scoop,frozen yogurt,gelato,cold stone,haagen daz,movenpick,sorbet,granita,ice cream,food</d:tags>


<d:license style="animation-play-state:paused" >by</d:license>


<d:slug style="animation-play-state:paused" >jw5bac</d:slug></metadata></g><!-- generated by https://loading.io/ --></svg>