<svg width="132" height="39" viewBox="0 0 132 39" fill="none" xmlns="http://www.w3.org/2000/svg">
<path d="M21.7411 39C18.3134 39 14.9343 38.2731 11.8796 36.8786C8.82478 35.4841 6.1809 33.4616 4.16367 30.976C2.14645 28.4904 0.813044 25.6123 0.272274 22.5764C-0.268496 19.5406 -0.00130512 16.4331 1.05204 13.5075C2.10539 10.5819 3.91504 7.92121 6.33331 5.74244C8.75159 3.56367 11.71 1.92862 14.967 0.970715C18.224 0.0128103 21.6874 -0.240802 25.0746 0.230576C28.4617 0.701953 31.6766 1.88496 34.4569 3.68306L31.9139 6.84629C29.6896 5.40779 27.1177 4.46137 24.4079 4.08426C21.6982 3.70716 18.9274 3.91005 16.3217 4.67638C13.7161 5.44272 11.3494 6.75077 9.41471 8.49381C7.48007 10.2368 6.03233 12.3655 5.18964 14.706C4.34695 17.0464 4.1332 19.5325 4.56582 21.9612C4.99844 24.3899 6.06518 26.6924 7.67898 28.6809C9.29278 30.6694 11.4079 32.2875 13.8518 33.4031C16.2956 34.5187 18.9989 35.1002 21.7411 35.1002V39Z" fill="white"/>
<rect x="21.741" y="35.1" width="107.52" height="3.9" fill="white"/>
<ellipse cx="21.8399" cy="19.4114" rx="2.66823" ry="2.39318" fill="white"/>
<ellipse cx="21.8399" cy="10.3705" rx="4.44704" ry="3.98864" fill="white"/>
<ellipse cx="11.76" cy="19.4114" rx="4.44704" ry="3.98864" fill="white"/>
<ellipse cx="21.8399" cy="28.4523" rx="4.44704" ry="3.98864" fill="white"/>
<ellipse cx="31.9199" cy="19.4114" rx="4.44704" ry="3.98864" fill="white"/>
<path d="M47.9751 15.6494V31.7143H41.9487V15.6494H47.9751ZM44.978 8.47894C45.7944 8.47894 46.498 8.76898 47.0889 9.34906C47.6904 9.9184 47.9912 10.5952 47.9912 11.3793C47.9912 12.2172 47.7065 12.9047 47.1372 13.4418C46.5786 13.9789 45.8589 14.2475 44.978 14.2475C44.0972 14.2475 43.3721 13.9789 42.8027 13.4418C42.2441 12.9047 41.9648 12.2172 41.9648 11.3793C41.9648 10.5952 42.2603 9.9184 42.8511 9.34906C43.4526 8.76898 44.1616 8.47894 44.978 8.47894ZM65.8447 31.7143H59.8184V22.6425C59.8184 21.7187 59.437 21.2568 58.6743 21.2568C57.9224 21.2568 57.5464 21.7187 57.5464 22.6425V31.7143H51.52V22.7553C51.52 20.6606 52.2129 18.8989 53.5986 17.4702C54.9844 16.0307 56.6816 15.311 58.6904 15.311C60.9893 15.311 62.8315 16.1435 64.2173 17.8085C65.3022 19.1083 65.8447 20.9184 65.8447 23.2387V31.7143ZM85.1646 24.6567H76.0283C75.8887 24.1948 75.8188 23.7704 75.8188 23.3837C75.8188 22.8466 75.9155 22.3203 76.1089 21.8046H79.1704C78.9556 20.6122 78.2842 20.0161 77.1562 20.0161C76.4043 20.0161 75.792 20.3383 75.3193 20.9828C74.8467 21.6166 74.6104 22.433 74.6104 23.4321C74.6104 24.4741 74.8359 25.3173 75.2871 25.9619C75.749 26.6064 76.3506 26.9286 77.0918 26.9286C77.6934 26.9286 78.2734 26.6279 78.832 26.0263L82.2642 30.1513C80.6636 31.4081 78.8857 32.0366 76.9307 32.0366C74.5459 32.0366 72.5425 31.2363 70.9204 29.6357C69.2983 28.0351 68.4873 26.0532 68.4873 23.6899C68.4873 21.3373 69.3037 19.35 70.9365 17.728C72.5801 16.1059 74.5942 15.2949 76.979 15.2949C79.3101 15.2949 81.2651 16.0898 82.8442 17.6796C84.4341 19.2587 85.229 21.2084 85.229 23.5287C85.229 23.7651 85.2075 24.1411 85.1646 24.6567ZM109.721 31.7143H103.695V23.0453C103.695 22.3793 103.625 21.9174 103.485 21.6596C103.346 21.4018 103.093 21.2729 102.728 21.2729C102.051 21.2729 101.713 21.8691 101.713 23.0615V31.7143H95.6865V23.0453C95.6865 22.3793 95.6113 21.9174 95.4609 21.6596C95.3213 21.4018 95.0688 21.2729 94.7036 21.2729C94.0376 21.2729 93.7046 21.8691 93.7046 23.0615V31.7143H87.6782V21.8207C87.6782 20.0161 88.2852 18.4853 89.499 17.2285C90.7129 15.9609 92.1846 15.3271 93.9141 15.3271C95.6973 15.3271 97.2979 16.079 98.7158 17.5829C100.295 16.079 101.874 15.3271 103.453 15.3271C105.462 15.3271 107.073 16.0576 108.287 17.5185C109.243 18.6572 109.721 20.3168 109.721 22.4975V31.7143ZM122.193 25.6879V31.9238C121.699 32.0097 121.248 32.0527 120.839 32.0527C118.422 32.0527 116.408 31.2578 114.797 29.6679C113.186 28.0781 112.38 26.0854 112.38 23.6899C112.38 21.3588 113.191 19.3823 114.813 17.7602C116.446 16.1381 118.428 15.3271 120.759 15.3271C123.358 15.3271 125.405 16.0898 126.898 17.6152C128.402 19.1298 129.154 21.2031 129.154 23.8349V31.7143H123.127V24.27C123.127 23.4213 122.918 22.7446 122.499 22.2397C122.091 21.7348 121.538 21.4824 120.839 21.4824C120.206 21.4824 119.658 21.7133 119.196 22.1752C118.734 22.6371 118.503 23.185 118.503 23.8188C118.503 24.4848 118.712 25.0327 119.131 25.4623C119.55 25.892 120.082 26.1069 120.727 26.1069C121.253 26.1069 121.742 25.9672 122.193 25.6879Z" fill="white"/>
</svg>
