<?xml version="1.0" encoding="utf-8"?><svg xml:space="preserve" viewBox="0 0 100 100" y="0" x="0" xmlns="http://www.w3.org/2000/svg" id="Layer_1" version="1.1" width="376px" height="376px" xmlns:xlink="http://www.w3.org/1999/xlink" style="width:100%;height:100%;background-size:initial;background-repeat-y:initial;background-repeat-x:initial;background-position-y:initial;background-position-x:initial;background-origin:initial;background-color:initial;background-clip:initial;background-attachment:initial;animation-play-state:paused" ><g class="ldl-scale" style="transform-origin:50% 50%;transform:rotate(0deg) scale(0.8, 0.8);animation-play-state:paused" ><g style="animation-play-state:paused" ><path fill="#f4e6c8" d="M50 91.5c-2.2 0-4-1.8-4-4v-56h8v56c0 2.2-1.8 4-4 4z" style="fill:rgb(117, 94, 44);animation-play-state:paused" ></path></g>
<path fill="#9ec4d2" d="M61.2 70.5H38.8c-3.5 0-6.3-2.8-6.3-6.3v-41c0-8.2 6.6-14.8 14.8-14.8h5.5c8.2 0 14.8 6.6 14.8 14.8v41c-.1 3.5-2.9 6.3-6.4 6.3z" style="fill:rgb(158, 196, 210);animation-play-state:paused" ></path>
<g style="animation-play-state:paused" ><path fill="#76a0b7" d="M42 62.3c-1.6 0-2.8-1.3-2.8-2.8v-38c0-1.6 1.3-2.8 2.8-2.8s2.8 1.3 2.8 2.8v38c0 1.6-1.2 2.8-2.8 2.8z" style="fill:rgb(118, 160, 183);animation-play-state:paused" ></path></g>
<g style="animation-play-state:paused" ><path fill="#76a0b7" d="M58 62.3c-1.6 0-2.8-1.3-2.8-2.8v-38c0-1.6 1.3-2.8 2.8-2.8s2.8 1.3 2.8 2.8v38c0 1.6-1.2 2.8-2.8 2.8z" style="fill:rgb(118, 160, 183);animation-play-state:paused" ></path></g>
<metadata xmlns:d="https://loading.io/stock/" style="animation-play-state:paused" ><d:name style="animation-play-state:paused" >popsicles</d:name>
<d:tags style="animation-play-state:paused" >popsicles,ice pop,ice lolly,frozen snack,freezer pop,ice block,icy pole,ice drop,chihiro,ice cream</d:tags>
<d:license style="animation-play-state:paused" >by</d:license>
<d:slug style="animation-play-state:paused" >uvq1ym</d:slug></metadata></g><!-- generated by https://loading.io/ --></svg>