<svg width="218" height="46" viewBox="0 0 218 46" fill="none" xmlns="http://www.w3.org/2000/svg">
<path d="M11.9219 19.7983V39.0739H13.1141H14.3063V19.7983V0.522717H13.1141H11.9219V19.7983Z" fill="black"/>
<path d="M16.0093 19.7983V39.0739H16.5202H17.0312V19.7983V0.522717H16.5202H16.0093V19.7983Z" fill="black"/>
<path d="M19.9265 19.7983V39.0739H20.4375H20.9484V19.7983V0.522717H20.4375H19.9265V19.7983Z" fill="black"/>
<path d="M26.739 19.7983V39.0739H29.2085H31.6781V19.7983V0.522717H29.2085H26.739V19.7983Z" fill="black"/>
<path d="M33.3813 19.7983V39.0739H33.8923H34.4032V19.7983V0.522717H33.8923H33.3813V19.7983Z" fill="black"/>
<path d="M36.1062 19.7983V39.0739H37.9796H39.8531V19.7983V0.522717H37.9796H36.1062V19.7983Z" fill="black"/>
<path d="M41.5562 19.7983V39.0739H43.3444H45.1327V19.7983V0.522717H43.3444H41.5562V19.7983Z" fill="black"/>
<path d="M46.8359 19.7983V39.0739H47.3469H47.8578V19.7983V0.522717H47.3469H46.8359V19.7983Z" fill="black"/>
<path d="M52.1157 19.7983V39.0739H53.3079H54.5001V19.7983V0.522717H53.3079H52.1157V19.7983Z" fill="black"/>
<path d="M56.2031 19.7983V39.0739H56.7141H57.225V19.7983V0.522717H56.7141H56.2031V19.7983Z" fill="black"/>
<path d="M62.8452 19.7983V39.0739H64.0374H65.2296V19.7983V0.522717H64.0374H62.8452V19.7983Z" fill="black"/>
<path d="M66.9329 19.7983V39.0739H67.4438H67.9547V19.7983V0.522717H67.4438H66.9329V19.7983Z" fill="black"/>
<path d="M71.0203 19.7983V39.0739H72.1273H73.2343V19.7983V0.522717H72.1273H71.0203V19.7983Z" fill="black"/>
<path d="M79.0249 19.7983V39.0739H79.5358H80.0468V19.7983V0.522717H79.5358H79.0249V19.7983Z" fill="black"/>
<path d="M83.1125 19.7983V39.0739H83.6235H84.1344V19.7983V0.522717H83.6235H83.1125V19.7983Z" fill="black"/>
<path d="M85.8374 19.7983V39.0739H86.2632H86.689V19.7983V0.522717H86.2632H85.8374V19.7983Z" fill="black"/>
<path d="M92.4797 19.7983V39.0739H93.6719H94.8641V19.7983V0.522717H93.6719H92.4797V19.7983Z" fill="black"/>
<path d="M96.397 19.7983V39.0739H96.9079H97.4188V19.7983V0.522717H96.9079H96.397V19.7983Z" fill="black"/>
<path d="M100.484 19.7983V39.0739H100.995H101.506V19.7983V0.522717H100.995H100.484V19.7983Z" fill="black"/>
<path d="M103.209 19.7983V39.0739H103.72H104.231V19.7983V0.522717H103.72H103.209V19.7983Z" fill="black"/>
<path d="M107.126 19.7983V39.0739H109.681H112.236V19.7983V0.522717H109.681H107.126V19.7983Z" fill="black"/>
<path d="M115.302 19.7983V39.0739H115.812H116.323V19.7983V0.522717H115.812H115.302V19.7983Z" fill="black"/>
<path d="M118.027 19.7983V39.0739H119.134H120.241V19.7983V0.522717H119.134H118.027V19.7983Z" fill="black"/>
<path d="M123.306 19.7983V39.0739H123.817H124.328V19.7983V0.522717H123.817H123.306V19.7983Z" fill="black"/>
<path d="M129.948 19.7983V39.0739H130.459H130.97V19.7983V0.522717H130.459H129.948V19.7983Z" fill="black"/>
<path d="M136.591 19.7983V39.0739H137.102H137.612V19.7983V0.522717H137.102H136.591V19.7983Z" fill="black"/>
<path d="M140.678 19.7983V39.0739H141.87H143.063V19.7983V0.522717H141.87H140.678V19.7983Z" fill="black"/>
<path d="M144.766 19.7983V39.0739H145.277H145.788V19.7983V0.522717H145.277H144.766V19.7983Z" fill="black"/>
<path d="M151.408 19.7983V39.0739H152.6H153.792V19.7983V0.522717H152.6H151.408V19.7983Z" fill="black"/>
<path d="M155.495 19.7983V39.0739H156.006H156.517V19.7983V0.522717H156.006H155.495V19.7983Z" fill="black"/>
<path d="M159.498 19.7983V39.0739H159.974H160.434V19.7983V0.522717H159.974H159.498V19.7983Z" fill="black"/>
<path d="M163.5 19.7983V39.0739H164.011H164.522V19.7983V0.522717H164.011H163.5V19.7983Z" fill="black"/>
<path d="M166.225 19.7983V39.0739H167.417H168.609V19.7983V0.522717H167.417H166.225V19.7983Z" fill="black"/>
<path d="M174.23 19.7983V39.0739H174.741H175.252V19.7983V0.522717H174.741H174.23V19.7983Z" fill="black"/>
<path d="M176.955 19.7983V39.0739H179.424H181.894V19.7983V0.522717H179.424H176.955V19.7983Z" fill="black"/>
<path d="M183.597 19.7983V39.0739H185.47H187.344V19.7983V0.522717H185.47H183.597V19.7983Z" fill="black"/>
<path d="M189.047 19.7983V39.0739H190.239H191.431V19.7983V0.522717H190.239H189.047V19.7983Z" fill="black"/>
<path d="M195.689 19.7983V39.0739H197.562H199.436V19.7983V0.522717H197.562H195.689V19.7983Z" fill="black"/>
<path d="M200.969 19.7983V39.0739H201.48H201.991V19.7983V0.522717H201.48H200.969V19.7983Z" fill="black"/>
<path d="M203.694 19.7983V39.0739H204.886H206.078V19.7983V0.522717H204.886H203.694V19.7983Z" fill="black"/>
</svg>
