<svg width="65" height="52" viewBox="0 0 65 52" fill="none" xmlns="http://www.w3.org/2000/svg">
<path fill-rule="evenodd" clip-rule="evenodd" d="M13.0001 6.50006C13.0001 2.91018 10.0899 0 6.50006 0C2.91018 0 0 2.91018 0 6.50006V42C0 47.5228 4.47715 52 10 52H55C60.5228 52 65 47.5228 65 42V6.49994C65 2.91012 62.0899 0 58.5001 0C54.9102 0 52.0001 2.91012 52.0001 6.49994V31.6C52.0001 37.1228 47.523 41.6 42.0001 41.6H23.0001C17.4773 41.6 13.0001 37.1228 13.0001 31.6V6.50006Z" fill="#2E2E2E"/>
<rect x="15.7856" y="5.2" width="33.4286" height="33.4286" rx="5" fill="#2E2E2E"/>
</svg>
