<svg width="105" height="53" viewBox="0 0 105 53" fill="none" xmlns="http://www.w3.org/2000/svg">
<path fill-rule="evenodd" clip-rule="evenodd" d="M21.1458 9.99999C21.1458 4.47714 16.6687 0 11.1458 0H10C4.47715 0 0 4.47715 0 10V43C0 48.5228 4.47715 53 10 53H95C100.523 53 105 48.5229 105 43V10C105 4.47715 100.523 0 95 0H93.8542C88.3313 0 83.8542 4.47715 83.8542 10V29.3714C83.8542 34.8943 79.377 39.3714 73.8542 39.3714H31.1458C25.623 39.3714 21.1458 34.8943 21.1458 29.3714V9.99999Z" fill="#9567F6"/>
<rect x="23" y="5" width="58.3333" height="31.8" rx="5" fill="#9567F6"/>
</svg>
